# xmcd
#
# Track frame offsets: 
#        150
#        29431
#        51315
#        83425
#        105118
#        138010
#        160881
#        186027
#        207905
#        252979
#        277181
#        293587
#        309867
#
# Disc length: 4496 seconds
#
# Revision: 0
# Processed by: cddbd v1.5.2PL0 Copyright (c) Steve Scherf et al.
# Submitted via: ExactAudioCopyFreeDBPlugin 1.0
#
DISCID=a7118e0d
DTITLE=Imperial Crowns - 25 Live
DYEAR=2018
DGENRE=Blues
TTITLE0=Altar Of Love
TTITLE1=Big Boy
TTITLE2=Big Chief
TTITLE3=Big Love Generator
TTITLE4=Blues Au Go Go
TTITLE5=Blues Look Whatcha Done
TTITLE6=Comin' Fuh Ya
TTITLE7=Diamond Cane
TTITLE8=Drop Down Mama
TTITLE9=Hunt You Down
TTITLE10=I Gotta Right
TTITLE11=Mr. Jinx
TTITLE12=Liberate
EXTD=
EXTT0=
EXTT1=
EXTT2=
EXTT3=
EXTT4=
EXTT5=
EXTT6=
EXTT7=
EXTT8=
EXTT9=
EXTT10=
EXTT11=
EXTT12=
PLAYORDER=
